<?xml version="1.0" encoding="UTF-8" standalone="no"?>
<!DOCTYPE svg PUBLIC "-//W3C//DTD SVG 1.1//EN" "http://www.w3.org/Graphics/SVG/1.1/DTD/svg11.dtd">
<svg width="100%" height="100%" viewBox="0 0 360 450" version="1.1" xmlns="http://www.w3.org/2000/svg" xmlns:xlink="http://www.w3.org/1999/xlink" xml:space="preserve" xmlns:serif="http://www.serif.com/" style="fill-rule:evenodd;clip-rule:evenodd;">
    <rect x="0" y="0" width="360" height="450" style="fill:rgb(91,91,91);"/>
    <g>
        <g transform="matrix(1,0,0,1,-0.000271622,0)">
            <text x="67.905px" y="95.859px" style="font-family:'HelveticaNeue-CondensedBold', 'Helvetica Neue';font-weight:700;font-stretch:condensed;font-size:18px;fill:white;">02</text>
        </g>
        <g transform="matrix(1,0,0,1,-0.000271622,0)">
            <text x="67.905px" y="163.159px" style="font-family:'HelveticaNeue-CondensedBold', 'Helvetica Neue';font-weight:700;font-stretch:condensed;font-size:18px;fill:white;">03b</text>
        </g>
        <g transform="matrix(1,0,0,1,-0.000271622,0)">
            <text x="67.905px" y="230.459px" style="font-family:'HelveticaNeue-CondensedBold', 'Helvetica Neue';font-weight:700;font-stretch:condensed;font-size:18px;fill:white;">03c</text>
        </g>
        <g transform="matrix(1,0,0,1,-0.000271622,0)">
            <text x="67.905px" y="297.758px" style="font-family:'HelveticaNeue-CondensedBold', 'Helvetica Neue';font-weight:700;font-stretch:condensed;font-size:18px;fill:white;">08</text>
        </g>
        <g transform="matrix(1,0,0,1,-0.000271622,0)">
            <text x="67.905px" y="365.868px" style="font-family:'HelveticaNeue-CondensedBold', 'Helvetica Neue';font-weight:700;font-stretch:condensed;font-size:18px;fill:white;">10</text>
        </g>
    </g>
    <g transform="matrix(1,0,0,1,0,-1.622)">
        <path d="M181.899,234.867L171.405,215.503C171.101,214.928 170.661,214.622 170.154,214.622C169.711,214.622 169.239,214.928 168.933,215.503L158.44,234.867C157.794,236.05 158.339,237 159.693,237L180.649,237C182.001,237 182.543,236.05 181.899,234.867Z" style="fill:white;fill-rule:nonzero;stroke:white;stroke-width:2.25px;"/>
    </g>
    <g transform="matrix(1,0,0,1,0,-1.622)">
        <path d="M181.899,234.866L171.405,215.503C171.1,214.927 170.661,214.622 170.154,214.622C169.711,214.622 169.239,214.927 168.933,215.503L158.44,234.866C157.794,236.05 158.339,237 159.693,237L180.649,237C182,237 182.542,236.05 181.899,234.866Z" style="fill:rgb(241,135,0);"/>
    </g>
    <g transform="matrix(1,0,0,1,0,12.923)">
        <path d="M168.097,218.515L167.878,218.621L168.152,218.456L168.097,218.515Z" style="fill:rgb(117,117,117);"/>
    </g>
    <g transform="matrix(1,0,0,1,0,12.335)">
        <path d="M168.208,218.985L168.378,218.68L168.263,218.927L168.208,218.985Z" style="fill:rgb(117,117,117);"/>
    </g>
    <g transform="matrix(1,0,0,1,0,12.699)">
        <path d="M168.187,218.66L168.152,218.68L168.208,218.621L168.187,218.66Z" style="fill:rgb(117,117,117);"/>
    </g>
    <g transform="matrix(1,0,0,1,0,3.83)">
        <path d="M170.192,218.858C169.909,218.858 169.659,218.946 169.442,219.121C169.225,219.296 169.062,219.529 168.953,219.819L166.623,226.119C166.57,226.266 166.544,226.394 166.544,226.503C166.544,226.73 166.628,226.921 166.796,227.077C166.963,227.234 167.166,227.312 167.404,227.312L167.695,227.274C167.959,227.198 168.139,227.007 168.235,226.703L168.585,225.627L171.803,225.627L172.148,226.715C172.284,227.113 172.567,227.312 172.996,227.312L173.392,227.216C173.513,227.152 173.61,227.061 173.684,226.945C173.757,226.828 173.794,226.696 173.794,226.549C173.794,226.428 173.764,226.285 173.703,226.119L171.43,219.819C171.328,219.525 171.171,219.291 170.958,219.118C170.851,219.031 170.734,218.966 170.606,218.923L170.192,218.858ZM171.283,224.027L169.083,224.027L170.18,220.667L170.203,220.667L171.283,224.027Z" style="fill:white;"/>
    </g>
    <g transform="matrix(1,0,0,1,0,132.982)">
        <path d="M181.899,167.564L171.405,148.201C171.101,147.626 170.661,147.321 170.154,147.321C169.711,147.321 169.239,147.626 168.933,148.201L158.44,167.564C157.794,168.748 158.339,169.697 159.693,169.697L180.649,169.697C182,169.697 182.542,168.748 181.899,167.564Z" style="fill:white;fill-rule:nonzero;stroke:white;stroke-width:2.25px;"/>
    </g>
    <g transform="matrix(1,0,0,1,0,132.98)">
        <path d="M181.899,167.566L171.405,148.202C171.101,147.627 170.661,147.321 170.154,147.321C169.711,147.321 169.239,147.627 168.933,148.202L158.44,167.566C157.794,168.75 158.339,169.699 159.693,169.699L180.649,169.699C182.001,169.699 182.542,168.75 181.899,167.566ZM170.168,150.476L179.373,167.522L160.933,167.522L170.168,150.476Z" style="fill:rgb(241,135,0);"/>
    </g>
    <g transform="matrix(1,0,0,1,0,-136.227)">
        <path d="M181.914,302.169L171.421,282.806C171.116,282.231 170.677,281.925 170.169,281.925C169.726,281.925 169.254,282.231 168.948,282.806L158.456,302.169C157.809,303.353 158.354,304.302 159.708,304.302L180.664,304.302C182.016,304.302 182.558,303.353 181.914,302.169Z" style="fill:white;fill-rule:nonzero;stroke:white;stroke-width:2.25px;"/>
    </g>
    <g transform="matrix(1,0,0,1,0,-136.225)">
        <path d="M180.124,302.913L160.151,302.913C159.745,302.913 159.678,302.743 159.812,302.507L169.901,283.888C169.935,283.82 170.037,283.719 170.139,283.719C170.274,283.719 170.374,283.82 170.407,283.888L180.461,302.507C180.598,302.743 180.531,302.913 180.124,302.913M181.884,302.168L171.39,282.804C171.085,282.229 170.645,281.923 170.139,281.923C169.696,281.923 169.223,282.229 168.918,282.804L158.425,302.168C157.779,303.352 158.323,304.302 159.678,304.302L180.634,304.302C181.985,304.302 182.527,303.352 181.884,302.168" style="fill:rgb(241,135,0);fill-rule:nonzero;"/>
    </g>
    <g transform="matrix(1,0,0,1,0,-130.774)">
        <path d="M170.191,286.16C169.908,286.16 169.658,286.248 169.442,286.423C169.225,286.598 169.062,286.831 168.952,287.121L166.623,293.421C166.57,293.568 166.543,293.697 166.543,293.805C166.543,294.032 166.627,294.224 166.795,294.38C166.963,294.536 167.166,294.614 167.403,294.614L167.695,294.576C167.958,294.5 168.138,294.31 168.235,294.006L168.585,292.929L171.803,292.929L172.148,294.017C172.284,294.415 172.566,294.614 172.996,294.614L173.392,294.518C173.513,294.454 173.609,294.364 173.683,294.247C173.757,294.13 173.794,293.998 173.794,293.851C173.794,293.731 173.763,293.588 173.703,293.421L171.43,287.121C171.328,286.827 171.171,286.594 170.957,286.42C170.851,286.333 170.734,286.268 170.606,286.225L170.191,286.16ZM171.282,291.329L169.083,291.329L170.18,287.97L170.202,287.97L171.282,291.329Z" style="fill:rgb(241,135,0);"/>
    </g>
    <g transform="matrix(1,0,0,1,0,-270.829)">
        <path d="M181.914,369.47L171.421,350.106C171.116,349.531 170.677,349.226 170.169,349.226C169.726,349.226 169.254,349.531 168.948,350.106L158.456,369.47C157.809,370.654 158.354,371.603 159.708,371.603L180.664,371.603C182.016,371.603 182.558,370.654 181.914,369.47Z" style="fill:white;fill-rule:nonzero;stroke:white;stroke-width:2.25px;"/>
    </g>
    <g transform="matrix(1,0,0,1,0,-270.828)">
        <path d="M180.124,370.215L160.151,370.215C159.745,370.215 159.678,370.045 159.812,369.809L169.901,351.189C169.935,351.122 170.037,351.02 170.139,351.02C170.274,351.02 170.374,351.122 170.407,351.189L180.461,369.809C180.598,370.045 180.531,370.215 180.124,370.215M181.884,369.469L171.39,350.106C171.085,349.53 170.645,349.225 170.139,349.225C169.696,349.225 169.223,349.53 168.918,350.106L158.425,369.469C157.779,370.653 158.323,371.603 159.678,371.603L180.634,371.603C181.985,371.603 182.527,370.653 181.884,369.469" style="fill:rgb(241,135,0);fill-rule:nonzero;"/>
    </g>
    <g transform="matrix(1,0,0,1,0,-265.376)">
        <path d="M170.191,353.461C169.908,353.461 169.658,353.548 169.442,353.724C169.225,353.899 169.062,354.132 168.952,354.422L166.623,360.722C166.57,360.869 166.543,360.997 166.543,361.106C166.543,361.333 166.627,361.524 166.795,361.68C166.963,361.836 167.166,361.915 167.403,361.915L167.695,361.877C167.958,361.801 168.138,361.61 168.235,361.306L168.585,360.23L171.803,360.23L172.148,361.318C172.284,361.716 172.566,361.915 172.996,361.915L173.392,361.819C173.513,361.755 173.609,361.664 173.683,361.547C173.757,361.431 173.794,361.299 173.794,361.151C173.794,361.031 173.763,360.888 173.703,360.722L171.43,354.422C171.328,354.128 171.171,353.894 170.957,353.721C170.851,353.634 170.734,353.569 170.606,353.526L170.191,353.461ZM171.282,358.629L169.083,358.629L170.18,355.27L170.202,355.27L171.282,358.629Z" style="fill:rgb(117,117,117);"/>
    </g>
    <g transform="matrix(-1,0,0,1,340.338,269.206)">
        <ellipse cx="170.169" cy="90.397" rx="12" ry="12" style="fill:none;stroke:white;stroke-width:2.25px;stroke-linejoin:round;"/>
    </g>
    <g transform="matrix(1,0,0,1,0,269.206)">
        <path d="M170.169,102.397C163.552,102.397 158.169,97.014 158.169,90.397C158.169,83.78 163.552,78.397 170.169,78.397C176.786,78.397 182.169,83.78 182.169,90.397C182.169,97.014 176.786,102.397 170.169,102.397" style="fill:rgb(241,135,0);fill-rule:nonzero;"/>
    </g>
    <g transform="matrix(1,0,0,1,0,266.94)">
        <path d="M170.16,85.261C169.912,85.261 169.648,85.433 169.477,85.755L163.598,96.603C163.237,97.266 163.542,97.798 164.3,97.798L176.04,97.798C176.797,97.798 177.101,97.266 176.74,96.603L170.862,85.755C170.691,85.433 170.445,85.261 170.16,85.261Z" style="fill:white;"/>
    </g>
    <g transform="matrix(1,0,0,1,0,-1.621)">
        <path d="M237.016,234.865L226.522,215.502C226.218,214.927 225.778,214.622 225.272,214.622C224.829,214.622 224.356,214.927 224.051,215.502L213.558,234.865C212.912,236.05 213.456,236.999 214.811,236.999L235.766,236.999C237.118,236.999 237.66,236.05 237.016,234.865Z" style="fill:white;fill-rule:nonzero;stroke:white;stroke-width:2.25px;"/>
    </g>
    <g transform="matrix(1,0,0,1,0,-1.621)">
        <path d="M237.016,234.865L226.522,215.503C226.218,214.927 225.778,214.622 225.271,214.622C224.828,214.622 224.356,214.927 224.05,215.503L213.557,234.865C212.912,236.049 213.456,236.999 214.81,236.999L235.766,236.999C237.117,236.999 237.659,236.049 237.016,234.865Z" style="fill:rgb(227,0,15);"/>
    </g>
    <g transform="matrix(1,0,0,1,0,4.811)">
        <path d="M221.847,225.711L220.455,219.719C220.423,219.602 220.407,219.478 220.407,219.35C220.407,219.161 220.48,218.993 220.627,218.847C220.773,218.7 220.96,218.627 221.189,218.627C221.664,218.627 221.956,218.89 222.067,219.414L222.999,224.072L223.02,224.072L224.444,219.27C224.509,219.07 224.617,218.913 224.771,218.798C224.924,218.685 225.101,218.627 225.301,218.627C225.501,218.627 225.678,218.685 225.834,218.798C225.989,218.913 226.097,219.07 226.158,219.27L227.582,224.072L227.604,224.072L228.535,219.414C228.585,219.157 228.679,218.962 228.819,218.828C228.958,218.694 229.156,218.627 229.414,218.627C229.645,218.627 229.833,218.7 229.975,218.847C230.118,218.993 230.189,219.161 230.189,219.35C230.189,219.471 230.175,219.594 230.147,219.719L228.755,225.711C228.697,225.957 228.575,226.161 228.388,226.321C228.2,226.482 227.96,226.562 227.668,226.562C227.407,226.562 227.179,226.487 226.982,226.337C226.786,226.187 226.652,225.997 226.581,225.765L225.312,221.529L225.291,221.529L224.016,225.765C223.948,225.997 223.816,226.187 223.62,226.337C223.423,226.487 223.193,226.562 222.929,226.562C222.64,226.562 222.402,226.482 222.214,226.321C222.027,226.161 221.905,225.957 221.847,225.711" style="fill:white;fill-rule:nonzero;"/>
    </g>
    <g transform="matrix(1,0,0,1,0,132.981)">
        <path d="M237.016,167.565L226.523,148.202C226.218,147.627 225.778,147.321 225.271,147.321C224.828,147.321 224.356,147.627 224.05,148.202L213.557,167.565C212.911,168.749 213.456,169.698 214.81,169.698L235.766,169.698C237.118,169.698 237.66,168.749 237.016,167.565Z" style="fill:white;fill-rule:nonzero;stroke:white;stroke-width:2.25px;"/>
    </g>
    <g>
        <clipPath id="_clip1">
            <path d="M225.271,280.302C225.778,280.302 226.218,280.607 226.522,281.183L237.016,300.546C237.66,301.73 237.118,302.679 235.766,302.679L214.81,302.679C213.456,302.679 212.911,301.73 213.557,300.546L224.051,281.183C224.356,280.607 224.828,280.302 225.271,280.302Z"/>
        </clipPath>
        <g clip-path="url(#_clip1)">
            <g transform="matrix(1,0,0,1,0,132.982)">
                <path d="M214.81,170.29C213.943,170.29 213.275,169.968 212.928,169.384C212.58,168.796 212.618,168.049 213.037,167.281L223.53,147.919C223.925,147.175 224.577,146.728 225.271,146.728C226.007,146.728 226.638,147.153 227.046,147.924L237.537,167.282C237.955,168.051 237.993,168.798 237.643,169.386C237.297,169.969 236.63,170.29 235.766,170.29L214.81,170.29Z" style="fill:rgb(227,0,15);fill-rule:nonzero;"/>
            </g>
            <g>
                <clipPath id="_clip2">
                    <path d="M224.051,281.183L213.557,300.546C212.911,301.731 213.456,302.679 214.81,302.679L235.766,302.679C237.118,302.679 237.66,301.731 237.016,300.546L226.522,281.183C226.218,280.608 225.779,280.302 225.271,280.302C224.828,280.302 224.356,280.608 224.051,281.183Z" clip-rule="nonzero"/>
                </clipPath>
                <g clip-path="url(#_clip2)">
                    <g transform="matrix(0.866029,-0.499994,-0.499994,-0.866029,113.121,540.736)">
                        <path d="M206.305,165.722L245.451,165.722" style="fill:none;fill-rule:nonzero;stroke:white;stroke-width:3px;stroke-miterlimit:10;"/>
                    </g>
                    <g transform="matrix(0.86604,-0.499975,-0.499975,-0.86604,109.76,541.632)">
                        <path d="M206.305,159.011L245.451,159.011" style="fill:none;fill-rule:nonzero;stroke:white;stroke-width:3px;stroke-miterlimit:10;"/>
                    </g>
                    <g transform="matrix(0.866029,-0.499994,-0.499994,-0.866029,106.41,542.534)">
                        <path d="M206.305,152.301L245.451,152.301" style="fill:none;fill-rule:nonzero;stroke:white;stroke-width:3px;stroke-miterlimit:10;"/>
                    </g>
                    <g transform="matrix(0.866029,-0.499994,-0.499994,-0.866029,103.055,543.433)">
                        <path d="M206.305,145.591L245.451,145.591" style="fill:none;fill-rule:nonzero;stroke:white;stroke-width:3px;stroke-miterlimit:10;"/>
                    </g>
                    <g transform="matrix(0.86604,-0.499975,-0.499975,-0.86604,99.6951,544.329)">
                        <path d="M206.305,138.88L245.451,138.88" style="fill:none;fill-rule:nonzero;stroke:white;stroke-width:2.25px;stroke-miterlimit:10;"/>
                    </g>
                    <g transform="matrix(0.866029,-0.499994,-0.499994,-0.866029,116.476,539.837)">
                        <path d="M206.305,172.431L245.451,172.432" style="fill:none;fill-rule:nonzero;stroke:white;stroke-width:2.25px;stroke-miterlimit:10;"/>
                    </g>
                </g>
            </g>
        </g>
    </g>
    <g transform="matrix(1,0,0,1,0,132.981)">
        <path d="M225.271,147.321C225.778,147.321 226.218,147.626 226.522,148.202L237.016,167.565C237.66,168.749 237.118,169.698 235.766,169.698L214.81,169.698C213.456,169.698 212.911,168.749 213.557,167.565L224.051,148.202C224.356,147.626 224.828,147.321 225.271,147.321Z" style="fill:none;fill-rule:nonzero;stroke:white;stroke-width:0.08px;stroke-linejoin:round;"/>
    </g>
    <g transform="matrix(1,0,0,1,0,-136.224)">
        <path d="M237.016,302.167L226.522,282.804C226.218,282.229 225.778,281.923 225.272,281.923C224.829,281.923 224.356,282.229 224.051,282.804L213.558,302.167C212.912,303.351 213.456,304.301 214.811,304.301L235.766,304.301C237.118,304.301 237.66,303.351 237.016,302.167Z" style="fill:white;fill-rule:nonzero;stroke:white;stroke-width:2.25px;"/>
    </g>
    <g transform="matrix(1,0,0,1,0,-136.225)">
        <path d="M237.016,302.168L226.522,282.805C226.218,282.23 225.778,281.924 225.271,281.924C224.828,281.924 224.356,282.23 224.05,282.805L213.557,302.168C212.912,303.352 213.456,304.301 214.81,304.301L235.766,304.301C237.117,304.301 237.659,303.352 237.016,302.168Z" style="fill:rgb(227,0,15);"/>
    </g>
    <g transform="matrix(1,0,0,1,0,-129.791)">
        <path d="M221.847,293.011L220.455,287.02C220.423,286.902 220.407,286.779 220.407,286.651C220.407,286.461 220.48,286.293 220.627,286.147C220.773,286.001 220.96,285.928 221.189,285.928C221.664,285.928 221.956,286.19 222.067,286.715L222.999,291.373L223.02,291.373L224.444,286.571C224.509,286.371 224.617,286.213 224.771,286.099C224.924,285.985 225.101,285.928 225.301,285.928C225.501,285.928 225.678,285.985 225.834,286.099C225.989,286.213 226.097,286.371 226.158,286.571L227.582,291.373L227.604,291.373L228.535,286.715C228.585,286.458 228.679,286.262 228.819,286.129C228.958,285.995 229.156,285.928 229.414,285.928C229.645,285.928 229.833,286.001 229.975,286.147C230.118,286.293 230.189,286.461 230.189,286.651C230.189,286.772 230.175,286.895 230.147,287.02L228.755,293.011C228.697,293.258 228.575,293.461 228.388,293.622C228.2,293.783 227.96,293.863 227.668,293.863C227.407,293.863 227.179,293.788 226.982,293.638C226.786,293.488 226.652,293.297 226.581,293.065L225.312,288.83L225.291,288.83L224.016,293.065C223.948,293.297 223.816,293.488 223.62,293.638C223.423,293.788 223.193,293.863 222.929,293.863C222.64,293.863 222.402,293.783 222.214,293.622C222.027,293.461 221.905,293.258 221.847,293.011" style="fill:white;fill-rule:nonzero;"/>
    </g>
    <g transform="matrix(1,0,0,1,0,-270.829)">
        <path d="M237.032,369.47L226.538,350.106C226.234,349.531 225.794,349.226 225.287,349.226C224.844,349.226 224.372,349.531 224.066,350.106L213.573,369.47C212.927,370.654 213.471,371.603 214.826,371.603L235.781,371.603C237.133,371.603 237.675,370.654 237.032,369.47Z" style="fill:white;fill-rule:nonzero;stroke:white;stroke-width:2.25px;"/>
    </g>
    <g transform="matrix(1,0,0,1,0,-270.828)">
        <path d="M235.241,370.215L215.269,370.215C214.862,370.215 214.795,370.045 214.93,369.809L225.018,351.189C225.053,351.122 225.154,351.02 225.256,351.02C225.391,351.02 225.492,351.122 225.525,351.189L235.579,369.809C235.716,370.045 235.648,370.215 235.241,370.215M237.001,369.469L226.507,350.106C226.202,349.53 225.763,349.225 225.256,349.225C224.813,349.225 224.341,349.53 224.035,350.106L213.542,369.469C212.896,370.653 213.441,371.603 214.795,371.603L235.751,371.603C237.102,371.603 237.644,370.653 237.001,369.469" style="fill:rgb(227,0,15);fill-rule:nonzero;"/>
    </g>
    <g transform="matrix(1,0,0,1,0,-262.897)">
        <path d="M221.82,359.565L220.428,353.573C220.396,353.456 220.38,353.332 220.38,353.204C220.38,353.015 220.453,352.847 220.599,352.701C220.746,352.554 220.933,352.481 221.162,352.481C221.636,352.481 221.929,352.744 222.04,353.268L222.972,357.927L222.993,357.927L224.417,353.124C224.481,352.924 224.59,352.767 224.744,352.653C224.897,352.539 225.074,352.481 225.274,352.481C225.474,352.481 225.651,352.539 225.807,352.653C225.962,352.767 226.07,352.924 226.13,353.124L227.555,357.927L227.576,357.927L228.508,353.268C228.558,353.011 228.652,352.816 228.792,352.682C228.931,352.548 229.129,352.481 229.386,352.481C229.618,352.481 229.805,352.554 229.948,352.701C230.091,352.847 230.162,353.015 230.162,353.204C230.162,353.325 230.148,353.448 230.12,353.573L228.728,359.565C228.67,359.812 228.548,360.015 228.361,360.176C228.173,360.336 227.933,360.416 227.641,360.416C227.38,360.416 227.151,360.341 226.955,360.191C226.759,360.041 226.625,359.851 226.554,359.619L225.285,355.383L225.263,355.383L223.989,359.619C223.921,359.851 223.789,360.041 223.593,360.191C223.396,360.341 223.166,360.416 222.902,360.416C222.613,360.416 222.374,360.336 222.187,360.176C222,360.015 221.877,359.812 221.82,359.565" style="fill-rule:nonzero;"/>
    </g>
    <g transform="matrix(-1,0,0,1,449.304,269.206)">
        <ellipse cx="224.652" cy="90.397" rx="12" ry="12" style="fill:none;stroke:white;stroke-width:2.25px;stroke-linejoin:round;"/>
        <ellipse cx="224.652" cy="90.397" rx="12" ry="12" style="fill:rgb(227,0,15);"/>
    </g>
    <g>
        <clipPath id="_clip3">
            <path d="M212.652,359.603C212.652,366.23 218.024,371.603 224.652,371.603C231.279,371.603 236.652,366.23 236.652,359.603C236.652,352.976 231.279,347.603 224.652,347.603C218.024,347.603 212.652,352.976 212.652,359.603Z" clip-rule="nonzero"/>
        </clipPath>
        <g clip-path="url(#_clip3)">
            <g transform="matrix(0.86603,-0.499991,-0.499991,-0.86603,80.9398,549.041)">
                <path d="M204.295,101.518L246.278,101.518" style="fill:none;fill-rule:nonzero;stroke:white;stroke-width:1.27px;stroke-miterlimit:10;"/>
            </g>
            <g transform="matrix(0.866023,-0.500004,-0.500004,-0.866023,77.3445,550.007)">
                <path d="M204.295,94.322L246.278,94.322" style="fill:none;fill-rule:nonzero;stroke:white;stroke-width:1.27px;stroke-miterlimit:10;"/>
            </g>
            <g transform="matrix(0.866027,-0.499997,-0.499997,-0.866027,73.7446,550.97)">
                <path d="M204.295,87.125L246.278,87.125" style="fill:none;fill-rule:nonzero;stroke:white;stroke-width:1.27px;stroke-miterlimit:10;"/>
            </g>
            <g transform="matrix(0.86603,-0.499991,-0.499991,-0.86603,70.145,551.933)">
                <path d="M204.295,79.928L246.278,79.928" style="fill:none;fill-rule:nonzero;stroke:white;stroke-width:1.27px;stroke-miterlimit:10;"/>
            </g>
            <g transform="matrix(0.866027,-0.499997,-0.499997,-0.866027,66.5477,552.898)">
                <path d="M204.295,72.731L246.278,72.731" style="fill:none;fill-rule:nonzero;stroke:white;stroke-width:1.27px;stroke-miterlimit:10;"/>
            </g>
            <g transform="matrix(0.86603,-0.499991,-0.499991,-0.86603,84.5383,548.077)">
                <path d="M204.295,108.715L246.278,108.715" style="fill:none;fill-rule:nonzero;stroke:white;stroke-width:1.27px;stroke-miterlimit:10;"/>
            </g>
        </g>
    </g>
    <g transform="matrix(1,0,0,1,0,266.94)">
        <path d="M224.643,85.261C224.395,85.261 224.131,85.433 223.96,85.755L218.082,96.603C217.72,97.266 218.025,97.798 218.783,97.798L230.523,97.798C231.28,97.798 231.584,97.266 231.223,96.603L225.345,85.755C225.174,85.433 224.928,85.261 224.643,85.261Z" style="fill:white;"/>
    </g>
    <g transform="matrix(1,0,0,1,0,-1.621)">
        <path d="M291.5,234.865L281.006,215.502C280.702,214.927 280.262,214.622 279.755,214.622C279.312,214.622 278.84,214.927 278.534,215.502L268.042,234.865C267.395,236.05 267.94,236.999 269.294,236.999L290.25,236.999C291.602,236.999 292.144,236.05 291.5,234.865Z" style="fill:white;fill-rule:nonzero;stroke:white;stroke-width:2.25px;"/>
    </g>
    <g transform="matrix(1,0,0,1,0,-1.621)">
        <path d="M291.499,234.865L281.005,215.503C280.702,214.927 280.261,214.622 279.755,214.622C279.312,214.622 278.84,214.927 278.534,215.503L268.041,234.865C267.395,236.049 267.939,236.999 269.294,236.999L290.249,236.999C291.601,236.999 292.143,236.049 291.499,234.865Z"/>
    </g>
    <g transform="matrix(1,0,0,1,0,4.244)">
        <path d="M279.787,218.614C280.05,218.614 280.362,218.652 280.722,218.727C281.082,218.803 281.394,218.928 281.658,219.103C281.922,219.279 282.054,219.502 282.054,219.773C282.054,220.011 281.983,220.214 281.839,220.382C281.696,220.549 281.51,220.633 281.279,220.633C281.174,220.633 281.06,220.613 280.937,220.573C280.815,220.534 280.689,220.49 280.559,220.44C280.429,220.392 280.298,220.353 280.168,220.325C280.038,220.296 279.896,220.282 279.742,220.282C279.481,220.282 279.258,220.35 279.071,220.486C278.885,220.622 278.791,220.805 278.791,221.035C278.791,221.283 279.001,221.482 279.422,221.631C279.842,221.78 280.31,221.939 280.825,222.109C281.339,222.279 281.773,222.542 282.128,222.898C282.482,223.254 282.659,223.771 282.659,224.45C282.659,224.978 282.525,225.447 282.258,225.858C281.99,226.269 281.63,226.586 281.178,226.808C280.725,227.03 280.232,227.142 279.696,227.142C279.037,227.142 278.402,227.044 277.793,226.851C277.184,226.656 276.88,226.32 276.88,225.841C276.88,225.607 276.95,225.412 277.092,225.256C277.234,225.099 277.421,225.021 277.655,225.021C277.768,225.021 277.893,225.04 278.028,225.078C278.164,225.116 278.337,225.171 278.548,225.245C278.759,225.318 278.944,225.374 279.103,225.414C279.261,225.454 279.427,225.474 279.6,225.474C279.849,225.474 280.062,225.431 280.239,225.347C280.416,225.262 280.551,225.144 280.643,224.993C280.736,224.842 280.782,224.671 280.782,224.478C280.782,224.184 280.679,223.992 280.474,223.901C280.268,223.811 279.796,223.649 279.057,223.416C278.318,223.182 277.776,222.912 277.431,222.606C277.086,222.301 276.914,221.847 276.914,221.244C276.914,220.716 277.045,220.253 277.307,219.855C277.569,219.458 277.921,219.151 278.361,218.937C278.803,218.722 279.278,218.614 279.787,218.614" style="fill:white;fill-rule:nonzero;"/>
    </g>
    <g transform="matrix(1,0,0,1,0,132.98)">
        <path d="M291.5,167.566L281.006,148.202C280.702,147.627 280.262,147.321 279.755,147.321C279.312,147.321 278.84,147.627 278.534,148.202L268.041,167.566C267.394,168.75 267.939,169.699 269.293,169.699L290.25,169.699C291.602,169.699 292.144,168.75 291.5,167.566Z" style="fill:white;fill-rule:nonzero;stroke:white;stroke-width:2.25px;"/>
    </g>
    <g transform="matrix(1,0,0,1,0,132.98)">
        <path d="M291.499,167.566L281.005,148.202C280.701,147.627 280.261,147.321 279.754,147.321C279.311,147.321 278.839,147.627 278.533,148.202L268.041,167.566C267.394,168.75 267.939,169.699 269.293,169.699L290.249,169.699C291.601,169.699 292.143,168.75 291.499,167.566Z" style="fill:rgb(227,0,15);"/>
    </g>
    <g transform="matrix(1,0,0,1,0,-136.224)">
        <path d="M291.5,302.167L281.006,282.804C280.702,282.229 280.262,281.923 279.755,281.923C279.312,281.923 278.84,282.229 278.534,282.804L268.042,302.167C267.395,303.351 267.94,304.301 269.294,304.301L290.25,304.301C291.602,304.301 292.144,303.351 291.5,302.167Z" style="fill:white;fill-rule:nonzero;stroke:white;stroke-width:2.25px;"/>
    </g>
    <g transform="matrix(1,0,0,1,0,-136.225)">
        <path d="M291.499,302.168L281.005,282.805C280.702,282.23 280.261,281.924 279.755,281.924C279.312,281.924 278.84,282.23 278.534,282.805L268.041,302.168C267.395,303.352 267.939,304.301 269.294,304.301L290.249,304.301C291.601,304.301 292.143,303.352 291.499,302.168Z"/>
    </g>
    <g transform="matrix(1,0,0,1,0,-130.359)">
        <path d="M279.787,285.916C280.05,285.916 280.362,285.953 280.722,286.029C281.082,286.104 281.394,286.23 281.658,286.405C281.922,286.581 282.054,286.803 282.054,287.075C282.054,287.312 281.983,287.515 281.839,287.683C281.696,287.851 281.51,287.934 281.279,287.934C281.174,287.934 281.06,287.915 280.937,287.875C280.815,287.836 280.689,287.791 280.559,287.742C280.429,287.694 280.298,287.655 280.168,287.627C280.038,287.598 279.896,287.584 279.742,287.584C279.481,287.584 279.258,287.652 279.071,287.788C278.885,287.923 278.791,288.107 278.791,288.336C278.791,288.585 279.001,288.784 279.422,288.933C279.842,289.082 280.31,289.241 280.825,289.411C281.339,289.58 281.773,289.843 282.128,290.199C282.482,290.556 282.659,291.073 282.659,291.751C282.659,292.28 282.525,292.749 282.258,293.16C281.99,293.571 281.63,293.887 281.178,294.11C280.725,294.332 280.232,294.443 279.696,294.443C279.037,294.443 278.402,294.346 277.793,294.152C277.184,293.958 276.88,293.621 276.88,293.143C276.88,292.909 276.95,292.714 277.092,292.557C277.234,292.401 277.421,292.323 277.655,292.323C277.768,292.323 277.893,292.342 278.028,292.379C278.164,292.417 278.337,292.473 278.548,292.546C278.759,292.62 278.944,292.676 279.103,292.716C279.261,292.755 279.427,292.775 279.6,292.775C279.849,292.775 280.062,292.733 280.239,292.648C280.416,292.563 280.551,292.445 280.643,292.294C280.736,292.144 280.782,291.972 280.782,291.78C280.782,291.486 280.679,291.294 280.474,291.203C280.268,291.113 279.796,290.951 279.057,290.717C278.318,290.483 277.776,290.214 277.431,289.908C277.086,289.603 276.914,289.148 276.914,288.545C276.914,288.018 277.045,287.555 277.307,287.157C277.569,286.76 277.921,286.453 278.361,286.238C278.803,286.023 279.278,285.916 279.787,285.916" style="fill:white;fill-rule:nonzero;"/>
    </g>
    <g transform="matrix(1,0,0,1,0,-270.827)">
        <path d="M291.5,369.469L281.006,350.105C280.702,349.53 280.262,349.225 279.755,349.225C279.312,349.225 278.84,349.53 278.534,350.105L268.042,369.469C267.395,370.653 267.94,371.602 269.294,371.602L290.25,371.602C291.602,371.602 292.144,370.653 291.5,369.469Z" style="fill:white;fill-rule:nonzero;stroke:white;stroke-width:2.25px;"/>
    </g>
    <g transform="matrix(1,0,0,1,0,-270.827)">
        <path d="M291.499,369.468L281.005,350.106C280.702,349.53 280.261,349.225 279.755,349.225C279.312,349.225 278.84,349.53 278.534,350.106L268.041,369.468C267.395,370.652 267.939,371.602 269.294,371.602L290.249,371.602C291.601,371.602 292.143,370.652 291.499,369.468Z" style="fill:rgb(227,0,15);"/>
    </g>
    <g transform="matrix(1,0,0,1,0,-264.962)">
        <path d="M279.787,353.217C280.05,353.217 280.362,353.255 280.722,353.33C281.082,353.406 281.394,353.531 281.658,353.706C281.922,353.882 282.054,354.105 282.054,354.376C282.054,354.614 281.983,354.817 281.839,354.985C281.696,355.152 281.51,355.236 281.279,355.236C281.174,355.236 281.06,355.216 280.937,355.177C280.815,355.137 280.689,355.093 280.559,355.044C280.429,354.995 280.298,354.956 280.168,354.928C280.038,354.899 279.896,354.885 279.742,354.885C279.481,354.885 279.258,354.953 279.071,355.089C278.885,355.225 278.791,355.408 278.791,355.638C278.791,355.886 279.001,356.085 279.422,356.234C279.842,356.383 280.31,356.542 280.825,356.712C281.339,356.882 281.773,357.145 282.128,357.501C282.482,357.857 282.659,358.375 282.659,359.053C282.659,359.581 282.525,360.05 282.258,360.461C281.99,360.872 281.63,361.189 281.178,361.411C280.725,361.634 280.232,361.745 279.696,361.745C279.037,361.745 278.402,361.648 277.793,361.454C277.184,361.259 276.88,360.923 276.88,360.444C276.88,360.211 276.95,360.015 277.092,359.859C277.234,359.702 277.421,359.624 277.655,359.624C277.768,359.624 277.893,359.643 278.028,359.681C278.164,359.719 278.337,359.774 278.548,359.848C278.759,359.922 278.944,359.977 279.103,360.017C279.261,360.057 279.427,360.077 279.6,360.077C279.849,360.077 280.062,360.034 280.239,359.95C280.416,359.865 280.551,359.747 280.643,359.596C280.736,359.445 280.782,359.274 280.782,359.081C280.782,358.787 280.679,358.595 280.474,358.505C280.268,358.414 279.796,358.252 279.057,358.019C278.318,357.785 277.776,357.515 277.431,357.21C277.086,356.904 276.914,356.45 276.914,355.847C276.914,355.319 277.045,354.856 277.307,354.458C277.569,354.061 277.921,353.754 278.361,353.54C278.803,353.325 279.278,353.217 279.787,353.217" style="fill:white;fill-rule:nonzero;"/>
    </g>
    <g transform="matrix(-1,0,0,1,559.54,269.206)">
        <ellipse cx="279.77" cy="90.397" rx="12" ry="12" style="fill:none;stroke:white;stroke-width:2.25px;stroke-linejoin:round;"/>
    </g>
    <g transform="matrix(1,0,0,1,0,269.206)">
        <path d="M279.77,102.397C273.153,102.397 267.77,97.014 267.77,90.397C267.77,83.78 273.153,78.397 279.77,78.397C286.387,78.397 291.77,83.78 291.77,90.397C291.77,97.014 286.387,102.397 279.77,102.397" style="fill:rgb(227,0,15);fill-rule:nonzero;"/>
    </g>
    <g transform="matrix(1,0,0,1,0,266.94)">
        <path d="M279.761,85.261C279.513,85.261 279.249,85.433 279.077,85.755L273.199,96.603C272.838,97.266 273.143,97.798 273.901,97.798L285.641,97.798C286.398,97.798 286.702,97.266 286.341,96.603L280.463,85.755C280.292,85.433 280.046,85.261 279.761,85.261M279.77,87.009L284.963,96.592L274.577,96.592L279.77,87.009" style="fill:white;fill-rule:nonzero;"/>
    </g>
</svg>
